<svg width="24" height="24" viewBox="0 0 24 24" fill="none" xmlns="http://www.w3.org/2000/svg">
<g id="visibility_off">
<mask id="mask0_18356_6392" style="mask-type:alpha" maskUnits="userSpaceOnUse" x="0" y="0" width="24" height="24">
<rect id="Bounding box" width="24" height="24" fill="#D9D9D9"/>
</mask>
<g mask="url(#mask0_18356_6392)">
<path id="visibility_off_2" d="M16.1 13.3001L14.65 11.8501C14.8 11.0668 14.575 10.3334 13.975 9.6501C13.375 8.96676 12.6 8.7001 11.65 8.8501L10.2 7.4001C10.4833 7.26676 10.7708 7.16676 11.0625 7.1001C11.3542 7.03343 11.6667 7.0001 12 7.0001C13.25 7.0001 14.3125 7.4376 15.1875 8.3126C16.0625 9.1876 16.5 10.2501 16.5 11.5001C16.5 11.8334 16.4667 12.1459 16.4 12.4376C16.3333 12.7293 16.2333 13.0168 16.1 13.3001ZM19.3 16.4501L17.85 15.0501C18.4833 14.5668 19.0458 14.0376 19.5375 13.4626C20.0292 12.8876 20.45 12.2334 20.8 11.5001C19.9667 9.81676 18.7708 8.47926 17.2125 7.4876C15.6542 6.49593 13.9167 6.0001 12 6.0001C11.5167 6.0001 11.0417 6.03343 10.575 6.1001C10.1083 6.16676 9.64999 6.26676 9.19999 6.4001L7.64999 4.8501C8.33332 4.56676 9.03332 4.35426 9.74999 4.2126C10.4667 4.07093 11.2167 4.0001 12 4.0001C14.3833 4.0001 16.525 4.62926 18.425 5.8876C20.325 7.14593 21.75 8.78343 22.7 10.8001C22.75 10.8834 22.7833 10.9876 22.8 11.1126C22.8167 11.2376 22.825 11.3668 22.825 11.5001C22.825 11.6334 22.8125 11.7626 22.7875 11.8876C22.7625 12.0126 22.7333 12.1168 22.7 12.2001C22.3167 13.0501 21.8375 13.8334 21.2625 14.5501C20.6875 15.2668 20.0333 15.9001 19.3 16.4501ZM19.1 21.9001L15.6 18.4501C15.0167 18.6334 14.4292 18.7709 13.8375 18.8626C13.2458 18.9543 12.6333 19.0001 12 19.0001C9.61665 19.0001 7.47499 18.3709 5.57499 17.1126C3.67499 15.8543 2.24999 14.2168 1.29999 12.2001C1.24999 12.1168 1.21665 12.0126 1.19999 11.8876C1.18332 11.7626 1.17499 11.6334 1.17499 11.5001C1.17499 11.3668 1.18332 11.2418 1.19999 11.1251C1.21665 11.0084 1.24999 10.9084 1.29999 10.8251C1.64999 10.0751 2.06665 9.38343 2.54999 8.7501C3.03332 8.11676 3.56665 7.53343 4.14999 7.0001L2.07499 4.9001C1.89165 4.71676 1.79999 4.4876 1.79999 4.2126C1.79999 3.9376 1.89999 3.7001 2.09999 3.5001C2.28332 3.31676 2.51665 3.2251 2.79999 3.2251C3.08332 3.2251 3.31665 3.31676 3.49999 3.5001L20.5 20.5001C20.6833 20.6834 20.7792 20.9126 20.7875 21.1876C20.7958 21.4626 20.7 21.7001 20.5 21.9001C20.3167 22.0834 20.0833 22.1751 19.8 22.1751C19.5167 22.1751 19.2833 22.0834 19.1 21.9001ZM5.54999 8.4001C5.06665 8.83343 4.62499 9.30843 4.22499 9.8251C3.82499 10.3418 3.48332 10.9001 3.19999 11.5001C4.03332 13.1834 5.22915 14.5209 6.78749 15.5126C8.34582 16.5043 10.0833 17.0001 12 17.0001C12.3333 17.0001 12.6583 16.9793 12.975 16.9376C13.2917 16.8959 13.6167 16.8501 13.95 16.8001L13.05 15.8501C12.8667 15.9001 12.6917 15.9376 12.525 15.9626C12.3583 15.9876 12.1833 16.0001 12 16.0001C10.75 16.0001 9.68749 15.5626 8.81249 14.6876C7.93749 13.8126 7.49999 12.7501 7.49999 11.5001C7.49999 11.3168 7.51249 11.1418 7.53749 10.9751C7.56249 10.8084 7.59999 10.6334 7.64999 10.4501L5.54999 8.4001Z" fill="#A8A8A8"/>
</g>
</g>
</svg>
