<svg width="54" height="67" viewBox="0 0 54 67" fill="none" xmlns="http://www.w3.org/2000/svg">
<path d="M38.6416 0H26.6953V13.8957H38.6416V0Z" fill="white"/>
<path d="M26.6953 25H38.6416V44.5977C38.6962 49.3135 37.3687 53.9392 34.828 57.8868C32.3192 61.7224 27.4764 66.2859 18.5167 66.2859C8.75753 66.2859 3.06927 61.6197 0 59.0627L7.53534 49.6651C10.5311 52.1382 13.4166 54.1726 18.5627 54.1726C22.459 54.1726 24.012 52.5675 24.9218 51.1676C26.1585 49.2233 26.7983 46.9494 26.7596 44.635L26.6953 25Z" fill="white"/>
<path d="M20.6028 16.4248H8.65649V28.5567H20.6028V16.4248Z" fill="#29ABE2"/>
<path d="M44.8996 60.7904C44.8996 63.3754 43.6039 64.7659 41.7936 64.7659C39.9833 64.7659 38.7979 63.1141 38.7979 60.9211C38.7979 58.728 40.02 56.9922 41.8947 56.9922C43.7693 56.9922 44.8996 58.7 44.8996 60.7904ZM40.1855 60.8931C40.1855 62.4516 40.8011 63.5994 41.8579 63.5994C42.9147 63.5994 43.512 62.3862 43.512 60.7997C43.512 59.4092 42.9607 58.1027 41.8579 58.1027C40.7552 58.1027 40.1855 59.3626 40.1855 60.8931Z" fill="white"/>
<path d="M47.2703 57.104V64.6445H45.947V57.104H47.2703Z" fill="white"/>
<path d="M48.7041 64.6445V57.104H50.1744L51.755 60.2116C52.1619 61.0242 52.5239 61.8592 52.8393 62.7127C52.7566 61.7795 52.7199 60.7063 52.7199 59.5117V57.104H53.9329V64.6445H52.5637L50.9647 61.4715C50.5414 60.638 50.164 59.7812 49.8344 58.9051C49.8344 59.8384 49.8987 60.8929 49.8987 62.1901V64.6351L48.7041 64.6445Z" fill="white"/>
</svg>
